<mxfile host="65bd71144e">
    <diagram id="prtHgNgQTEPvFCAcTncT" name="Page-1">
        <mxGraphModel dx="582" dy="520" grid="1" gridSize="10" guides="1" tooltips="1" connect="1" arrows="1" fold="1" page="1" pageScale="1" pageWidth="827" pageHeight="1169" math="0" shadow="0">
            <root>
                <mxCell id="0"/>
                <mxCell id="1" parent="0"/>
                <mxCell id="22" value="" style="rounded=0;whiteSpace=wrap;html=1;fillColor=#f5f5f5;strokeColor=#666666;fontColor=#333333;" vertex="1" parent="1">          <mxGeometry x="50" y="40" width="880" height="600" as="geometry" />        </mxCell>
        <mxCell id="5x" value="&lt;b&gt;RP1_Old_WHC Document&lt;/b&gt;" style="rounded=0;whiteSpace=wrap;html=1;fillColor=#e1d5e7;strokeColor=#9673a6;" vertex="1" parent="1">          <mxGeometry x="730" y="60" width="150" height="40" as="geometry" />        </mxCell>
                <mxCell id="2" value="&lt;b&gt;Amendment Provisions&lt;/b&gt;" style="rounded=0;whiteSpace=wrap;html=1;fillColor=#dae8fc;strokeColor=#6c8ebf;" parent="1" vertex="1">
                    <mxGeometry x="80" y="60" width="200" height="40" as="geometry"/>
                </mxCell>
                <mxCell id="3" value="&lt;b&gt;RP1_UCT Document&lt;/b&gt;" style="rounded=0;whiteSpace=wrap;html=1;fillColor=#d5e8d4;strokeColor=#82b366;" parent="1" vertex="1">
                    <mxGeometry x="280" y="60" width="150" height="40" as="geometry"/>
                </mxCell>
                <mxCell id="4" value="&lt;b&gt;RP1_WHC Document&lt;/b&gt;" style="rounded=0;whiteSpace=wrap;html=1;fillColor=#ffe6cc;strokeColor=#d79b00;" parent="1" vertex="1">
                    <mxGeometry x="430" y="60" width="150" height="40" as="geometry"/>
                </mxCell>
                <mxCell id="5" value="&lt;b&gt;RP2_WHC Document&lt;/b&gt;" style="rounded=0;whiteSpace=wrap;html=1;fillColor=#fff2cc;strokeColor=#d6b656;" vertex="1" parent="1">
                    <mxGeometry x="580" y="60" width="150" height="40" as="geometry" />
                </mxCell>
                <mxCell id="6" value="&lt;b&gt;New Definitions&lt;/b&gt;" style="rounded=1;whiteSpace=wrap;html=1;fillColor=#dae8fc;strokeColor=#6c8ebf;" parent="1" vertex="1">
                    <mxGeometry x="80" y="120" width="200" height="50" as="geometry"/>
                </mxCell>
                <mxCell id="7" value="Definitions Section 1.x&lt;br&gt;(Azure, Cloud Migration, DAC, etc.)" style="rounded=1;whiteSpace=wrap;html=1;fillColor=#d5e8d4;strokeColor=#82b366;" parent="1" vertex="1">
                    <mxGeometry x="280" y="120" width="150" height="50" as="geometry"/>
                </mxCell>
                <mxCell id="8" value="Definitions Section 1.x&lt;br&gt;(Azure, Cloud Migration, DAC, etc.)" style="rounded=1;whiteSpace=wrap;html=1;fillColor=#ffe6cc;strokeColor=#d79b00;" parent="1" vertex="1">
                    <mxGeometry x="430" y="120" width="150" height="50" as="geometry"/>
                </mxCell>
                <mxCell id="9" value="Definitions Section 1.x&lt;br&gt;(Azure, Cloud Migration, DAC, etc.)" style="rounded=1;whiteSpace=wrap;html=1;fillColor=#fff2cc;strokeColor=#d6b656;" vertex="1" parent="1">          <mxGeometry x="580" y="120" width="150" height="50" as="geometry" />        </mxCell>
        <mxCell id="9x" value="Definitions Section 1.x&lt;br&gt;(Azure, Cloud Migration, DAC, etc.)" style="rounded=1;whiteSpace=wrap;html=1;fillColor=#e1d5e7;strokeColor=#9673a6;" vertex="1" parent="1">          <mxGeometry x="730" y="120" width="150" height="50" as="geometry" />        </mxCell>
                <mxCell id="10" value="&lt;b&gt;Agreement Term Change&lt;/b&gt;" style="rounded=1;whiteSpace=wrap;html=1;fillColor=#dae8fc;strokeColor=#6c8ebf;" parent="1" vertex="1">
                    <mxGeometry x="80" y="190" width="200" height="50" as="geometry"/>
                </mxCell>
                <mxCell id="11" value="Section 2.1&lt;br&gt;Extended for Post-Project Data Use" style="rounded=1;whiteSpace=wrap;html=1;fillColor=#d5e8d4;strokeColor=#82b366;" parent="1" vertex="1">
                    <mxGeometry x="280" y="190" width="150" height="50" as="geometry"/>
                </mxCell>
                <mxCell id="12" value="Section 2.1&lt;br&gt;Extended for Post-Project Data Use" style="rounded=1;whiteSpace=wrap;html=1;fillColor=#ffe6cc;strokeColor=#d79b00;" parent="1" vertex="1">
                    <mxGeometry x="430" y="190" width="150" height="50" as="geometry"/>
                </mxCell>
                <mxCell id="13" value="Section 2.1&lt;br&gt;Extended for Post-Project Data Use" style="rounded=1;whiteSpace=wrap;html=1;fillColor=#fff2cc;strokeColor=#d6b656;" vertex="1" parent="1">          <mxGeometry x="580" y="190" width="150" height="50" as="geometry" />        </mxCell>
        <mxCell id="13x" value="Section 2.1&lt;br&gt;Extended for Post-Project Data Use" style="rounded=1;whiteSpace=wrap;html=1;fillColor=#e1d5e7;strokeColor=#9673a6;" vertex="1" parent="1">          <mxGeometry x="730" y="190" width="150" height="50" as="geometry" />        </mxCell>
                <mxCell id="14" value="&lt;b&gt;Cloud Migration Authorization&lt;/b&gt;" style="rounded=1;whiteSpace=wrap;html=1;fillColor=#dae8fc;strokeColor=#6c8ebf;" parent="1" vertex="1">
                    <mxGeometry x="80" y="260" width="200" height="50" as="geometry"/>
                </mxCell>
                <mxCell id="15" value="Section 2.X&lt;br&gt;Azure Migration &amp;amp; Security" style="rounded=1;whiteSpace=wrap;html=1;fillColor=#d5e8d4;strokeColor=#82b366;" parent="1" vertex="1">
                    <mxGeometry x="280" y="260" width="150" height="50" as="geometry"/>
                </mxCell>
                <mxCell id="16" value="Section 2.X&lt;br&gt;Azure Migration &amp;amp; Security" style="rounded=1;whiteSpace=wrap;html=1;fillColor=#ffe6cc;strokeColor=#d79b00;" parent="1" vertex="1">
                    <mxGeometry x="430" y="260" width="150" height="50" as="geometry"/>
                </mxCell>
                <mxCell id="17" value="Section 2.19&lt;br&gt;Azure Migration &amp;amp; Security" style="rounded=1;whiteSpace=wrap;html=1;fillColor=#fff2cc;strokeColor=#d6b656;" vertex="1" parent="1">          <mxGeometry x="580" y="260" width="150" height="50" as="geometry" />        </mxCell>
        <mxCell id="17x" value="Section 2.19&lt;br&gt;Azure Migration &amp;amp; Security" style="rounded=1;whiteSpace=wrap;html=1;fillColor=#e1d5e7;strokeColor=#9673a6;" vertex="1" parent="1">          <mxGeometry x="730" y="260" width="150" height="50" as="geometry" />        </mxCell>
                <mxCell id="18" value="&lt;b&gt;External Researcher Access&lt;/b&gt;" style="rounded=1;whiteSpace=wrap;html=1;fillColor=#dae8fc;strokeColor=#6c8ebf;" parent="1" vertex="1">
                    <mxGeometry x="80" y="330" width="200" height="50" as="geometry"/>
                </mxCell>
                <mxCell id="19" value="Section 2.Y&lt;br&gt;External Access Rules" style="rounded=1;whiteSpace=wrap;html=1;fillColor=#d5e8d4;strokeColor=#82b366;" parent="1" vertex="1">
                    <mxGeometry x="280" y="330" width="150" height="50" as="geometry"/>
                </mxCell>
                <mxCell id="20" value="Section 2.Y&lt;br&gt;External Access Rules" style="rounded=1;whiteSpace=wrap;html=1;fillColor=#ffe6cc;strokeColor=#d79b00;" parent="1" vertex="1">
                    <mxGeometry x="430" y="330" width="150" height="50" as="geometry"/>
                </mxCell>
                <mxCell id="21" value="Section 2.20&lt;br&gt;External Access Rules" style="rounded=1;whiteSpace=wrap;html=1;fillColor=#fff2cc;strokeColor=#d6b656;" vertex="1" parent="1">          <mxGeometry x="580" y="330" width="150" height="50" as="geometry" />        </mxCell>
        <mxCell id="21x" value="Section 2.20&lt;br&gt;External Access Rules" style="rounded=1;whiteSpace=wrap;html=1;fillColor=#e1d5e7;strokeColor=#9673a6;" vertex="1" parent="1">          <mxGeometry x="730" y="330" width="150" height="50" as="geometry" />        </mxCell>
                <mxCell id="23" value="&lt;b&gt;Post-Project Data Use&lt;/b&gt;" style="rounded=1;whiteSpace=wrap;html=1;fillColor=#dae8fc;strokeColor=#6c8ebf;" parent="1" vertex="1">
                    <mxGeometry x="80" y="400" width="200" height="50" as="geometry"/>
                </mxCell>
                <mxCell id="24" value="Section 2.Z&lt;br&gt;Data Retention Periods" style="rounded=1;whiteSpace=wrap;html=1;fillColor=#d5e8d4;strokeColor=#82b366;" parent="1" vertex="1">
                    <mxGeometry x="280" y="400" width="150" height="50" as="geometry"/>
                </mxCell>
                <mxCell id="25" value="Section 2.Z&lt;br&gt;Data Retention Periods" style="rounded=1;whiteSpace=wrap;html=1;fillColor=#ffe6cc;strokeColor=#d79b00;" parent="1" vertex="1">
                    <mxGeometry x="430" y="400" width="150" height="50" as="geometry"/>
                </mxCell>
                <mxCell id="26" value="Section 2.21&lt;br&gt;Data Retention Periods" style="rounded=1;whiteSpace=wrap;html=1;fillColor=#fff2cc;strokeColor=#d6b656;" vertex="1" parent="1">          <mxGeometry x="580" y="400" width="150" height="50" as="geometry" />        </mxCell>
        <mxCell id="26x" value="Section 2.21&lt;br&gt;Data Retention Periods" style="rounded=1;whiteSpace=wrap;html=1;fillColor=#e1d5e7;strokeColor=#9673a6;" vertex="1" parent="1">          <mxGeometry x="730" y="400" width="150" height="50" as="geometry" />        </mxCell>
                <mxCell id="27" value="&lt;b&gt;Security Provisions&lt;/b&gt;" style="rounded=1;whiteSpace=wrap;html=1;fillColor=#dae8fc;strokeColor=#6c8ebf;" parent="1" vertex="1">
                    <mxGeometry x="80" y="470" width="200" height="50" as="geometry"/>
                </mxCell>
                <mxCell id="28" value="Section 6&lt;br&gt;Enhanced Cloud Safeguards" style="rounded=1;whiteSpace=wrap;html=1;fillColor=#d5e8d4;strokeColor=#82b366;" parent="1" vertex="1">
                    <mxGeometry x="280" y="470" width="150" height="50" as="geometry"/>
                </mxCell>
                <mxCell id="29" value="Section 6&lt;br&gt;Enhanced Cloud Safeguards" style="rounded=1;whiteSpace=wrap;html=1;fillColor=#ffe6cc;strokeColor=#d79b00;" parent="1" vertex="1">
                    <mxGeometry x="430" y="470" width="150" height="50" as="geometry"/>
                </mxCell>
                <mxCell id="30" value="Section 6&lt;br&gt;Enhanced Cloud Safeguards" style="rounded=1;whiteSpace=wrap;html=1;fillColor=#fff2cc;strokeColor=#d6b656;" vertex="1" parent="1">          <mxGeometry x="580" y="470" width="150" height="50" as="geometry" />        </mxCell>
        <mxCell id="30x" value="Section 6&lt;br&gt;Enhanced Cloud Safeguards" style="rounded=1;whiteSpace=wrap;html=1;fillColor=#e1d5e7;strokeColor=#9673a6;" vertex="1" parent="1">          <mxGeometry x="730" y="470" width="150" height="50" as="geometry" />        </mxCell>
                <mxCell id="31" value="&lt;b&gt;Security Breach Provisions&lt;/b&gt;" style="rounded=1;whiteSpace=wrap;html=1;fillColor=#dae8fc;strokeColor=#6c8ebf;" parent="1" vertex="1">
                    <mxGeometry x="80" y="540" width="200" height="50" as="geometry"/>
                </mxCell>
                <mxCell id="32" value="Section 7&lt;br&gt;Extended Notifications" style="rounded=1;whiteSpace=wrap;html=1;fillColor=#d5e8d4;strokeColor=#82b366;" parent="1" vertex="1">
                    <mxGeometry x="280" y="540" width="150" height="50" as="geometry"/>
                </mxCell>
                <mxCell id="33" value="Section 7&lt;br&gt;Extended Notifications" style="rounded=1;whiteSpace=wrap;html=1;fillColor=#ffe6cc;strokeColor=#d79b00;" parent="1" vertex="1">
                    <mxGeometry x="430" y="540" width="150" height="50" as="geometry"/>
                </mxCell>
                <mxCell id="34" value="Section 7&lt;br&gt;Extended Notifications" style="rounded=1;whiteSpace=wrap;html=1;fillColor=#fff2cc;strokeColor=#d6b656;" vertex="1" parent="1">          <mxGeometry x="580" y="540" width="150" height="50" as="geometry" />        </mxCell>
        <mxCell id="34x" value="Section 7&lt;br&gt;Extended Notifications with Section 12.6 Survival Clause" style="rounded=1;whiteSpace=wrap;html=1;fillColor=#e1d5e7;strokeColor=#9673a6;" vertex="1" parent="1">          <mxGeometry x="730" y="540" width="150" height="50" as="geometry" />        </mxCell>
                <mxCell id="35" value="&lt;b&gt;LEGAL DOCUMENT AMENDMENTS&lt;/b&gt;" style="text;html=1;strokeColor=none;fillColor=none;align=center;verticalAlign=middle;whiteSpace=wrap;rounded=0;fontSize=16;" parent="1" vertex="1">
                    <mxGeometry x="300" y="20" width="230" height="30" as="geometry"/>
                </mxCell>
            </root>
        </mxGraphModel>
    </diagram>
</mxfile>